<svg width="426" height="226" viewBox="0 0 426 226" fill="none" xmlns="http://www.w3.org/2000/svg">
<path d="M101.36 225.06C63.28 225.06 36.9867 215.2 22.48 195.48C7.97333 175.533 0.720001 147.993 0.720001 112.86C0.720001 76.14 8.08667 48.26 22.82 29.22C37.78 9.95333 63.96 0.319997 101.36 0.319997C141.253 0.319997 168.453 10.18 182.96 29.9C197.693 49.62 205.06 77.16 205.06 112.52C205.06 149.24 197.58 177.233 182.62 196.5C167.887 215.54 140.8 225.06 101.36 225.06ZM101.36 215.54C137.853 215.54 162.333 206.7 174.8 189.02C187.267 171.113 193.5 145.613 193.5 112.52C193.5 80.1067 187.153 54.8333 174.46 36.7C161.993 18.5667 137.627 9.5 101.36 9.5C66.68 9.5 43.1067 18.4533 30.64 36.36C18.1733 54.04 11.94 79.54 11.94 112.86C11.94 145.047 18.2867 170.207 30.98 188.34C43.6733 206.473 67.1333 215.54 101.36 215.54ZM240.699 222.34V212.14H327.059V14.94L240.699 38.06V27.18L328.419 3.38H338.959V212.14H425.999V222.34H240.699Z" fill="#F9F9F9"/>
</svg>
