<svg width="420" height="226" viewBox="0 0 420 226" fill="none" xmlns="http://www.w3.org/2000/svg">
<path d="M101.36 225.06C63.28 225.06 36.9867 215.2 22.48 195.48C7.97333 175.533 0.720001 147.993 0.720001 112.86C0.720001 76.14 8.08667 48.26 22.82 29.22C37.78 9.95333 63.96 0.319997 101.36 0.319997C141.253 0.319997 168.453 10.18 182.96 29.9C197.693 49.62 205.06 77.16 205.06 112.52C205.06 149.24 197.58 177.233 182.62 196.5C167.887 215.54 140.8 225.06 101.36 225.06ZM101.36 215.54C137.853 215.54 162.333 206.7 174.8 189.02C187.267 171.113 193.5 145.613 193.5 112.52C193.5 80.1067 187.153 54.8333 174.46 36.7C161.993 18.5667 137.627 9.5 101.36 9.5C66.68 9.5 43.1067 18.4533 30.64 36.36C18.1733 54.04 11.94 79.54 11.94 112.86C11.94 145.047 18.2867 170.207 30.98 188.34C43.6733 206.473 67.1333 215.54 101.36 215.54ZM419.539 65.26C419.539 71.8333 417.159 79.0867 412.399 87.02C407.866 94.9533 396.306 102.773 377.719 110.48C359.132 118.187 345.079 124.08 335.559 128.16C326.266 132.013 316.632 136.547 306.659 141.76C296.686 146.747 287.506 152.527 279.119 159.1C270.959 165.673 264.386 173.72 259.399 183.24C254.866 191.4 252.372 201.147 251.919 212.48H419.199V222H240.699V217.24C240.699 203.187 242.966 191.173 247.499 181.2C252.259 171.227 258.492 162.84 266.199 156.04C274.132 149.013 282.632 142.893 291.699 137.68C300.992 132.24 310.512 127.593 320.259 123.74C330.232 119.66 344.626 113.993 363.439 106.74C382.252 99.26 394.379 91.8933 399.819 84.64C405.486 77.3867 408.319 70.9267 408.319 65.26C408.319 47.3533 403.446 33.64 393.699 24.12C383.952 14.3733 364.459 9.5 335.219 9.5C303.939 9.5 282.972 14.26 272.319 23.78C261.666 33.3 254.979 46.1067 252.259 62.2H241.039C243.079 49.0533 247.272 37.6067 253.619 27.86C260.192 18.1133 269.146 11.0867 280.479 6.77999C291.812 2.47333 310.172 0.319997 335.559 0.319997C360.266 0.319997 377.946 2.92666 388.599 8.14C399.479 13.3533 407.299 20.8333 412.059 30.58C417.046 40.3267 419.539 51.8867 419.539 65.26Z" fill="#F9F9F9"/>
</svg>
