<svg width="424" height="226" viewBox="0 0 424 226" fill="none" xmlns="http://www.w3.org/2000/svg">
<path d="M101.36 225.06C63.28 225.06 36.9867 215.2 22.48 195.48C7.97333 175.533 0.720001 147.993 0.720001 112.86C0.720001 76.14 8.08667 48.26 22.82 29.22C37.78 9.95333 63.96 0.319997 101.36 0.319997C141.253 0.319997 168.453 10.18 182.96 29.9C197.693 49.62 205.06 77.16 205.06 112.52C205.06 149.24 197.58 177.233 182.62 196.5C167.887 215.54 140.8 225.06 101.36 225.06ZM101.36 215.54C137.853 215.54 162.333 206.7 174.8 189.02C187.267 171.113 193.5 145.613 193.5 112.52C193.5 80.1067 187.153 54.8333 174.46 36.7C161.993 18.5667 137.627 9.5 101.36 9.5C66.68 9.5 43.1067 18.4533 30.64 36.36C18.1733 54.04 11.94 79.54 11.94 112.86C11.94 145.047 18.2867 170.207 30.98 188.34C43.6733 206.473 67.1333 215.54 101.36 215.54ZM422.599 58.8C422.599 69.2267 420.446 77.5 416.139 83.62C411.832 89.5133 405.486 94.2733 397.099 97.9C388.939 101.527 379.419 104.587 368.539 107.08C368.086 107.08 367.746 107.08 367.519 107.08C369.106 107.533 370.692 107.873 372.279 108.1C384.292 111.047 394.039 115.24 401.519 120.68C409.226 126.12 414.779 132.58 418.179 140.06C421.579 147.54 423.279 155.133 423.279 162.84C423.279 175.307 420.446 186.187 414.779 195.48C409.112 204.773 400.499 212.027 388.939 217.24C377.606 222.453 360.719 225.06 338.279 225.06C310.172 225.06 290.566 222.68 279.459 217.92C268.352 212.933 259.626 205.793 253.279 196.5C246.932 186.98 242.739 175.76 240.699 162.84H251.919C254.412 179.16 261.099 192.08 271.979 201.6C283.086 211.12 305.072 215.88 337.939 215.88C365.366 215.88 384.519 211.12 395.399 201.6C406.506 192.08 412.059 179.047 412.059 162.5C412.059 156.607 410.586 150.487 407.639 144.14C404.919 137.567 400.386 131.9 394.039 127.14C387.919 122.38 379.306 118.64 368.199 115.92C357.092 113.2 343.266 111.84 326.719 111.84H323.319V103.34H326.379C341.566 103.34 354.259 102.207 364.459 99.94C374.886 97.6733 383.499 94.9533 390.299 91.78C397.326 88.38 402.539 84.1867 405.939 79.2C409.566 74.2133 411.379 67.4133 411.379 58.8C411.379 43.16 406.619 31.0333 397.099 22.42C387.579 13.8067 368.312 9.5 339.299 9.5C305.752 9.5 283.766 14.26 273.339 23.78C263.139 33.3 256.679 46.1067 253.959 62.2H242.739C244.779 49.0533 248.859 37.9467 254.979 28.88C261.099 19.5867 269.486 12.56 280.139 7.79998C291.019 2.81332 310.852 0.319997 339.639 0.319997C364.572 0.319997 382.026 2.69999 391.999 7.45999C402.199 12.22 409.792 19.02 414.779 27.86C419.992 36.4733 422.599 46.7867 422.599 58.8Z" fill="#F9F9F9"/>
</svg>
