<svg width="176" height="256" viewBox="0 0 176 256" fill="none" xmlns="http://www.w3.org/2000/svg">
<path d="M170.871 91.3625C171.034 91.1996 172.265 86.219 173.605 80.2954C174.946 74.3711 175.835 69.4608 175.582 69.3827C175.328 69.3054 171.218 68.7065 166.447 68.0527C156.866 66.7392 145.675 63.5189 138.67 60.0615C116.842 49.2844 102.347 29.8662 98.5178 6.26883L97.5425 0.25981L87.9156 0.291878L78.2879 0.323948L77.3918 5.77624C71.5212 41.4974 44.9046 64.8618 4.9712 69.349C2.36358 69.6418 0.231135 69.9886 0.23157 70.1194C0.235581 71.3235 5.11018 91.2585 5.49232 91.6345C5.76865 91.9065 8.21343 91.6954 10.9242 91.1647C40.9414 85.2915 65.3277 68.6797 75.4758 47.1944L77.9101 42.0406L78.4546 147.853L78.7993 255.762L98.2828 255.697L98.1813 147.615L98.0224 42.051L101.335 48.5363C109.93 65.3607 126.723 78.6477 149.23 86.4302C155.642 88.648 170.254 91.9779 170.871 91.3625Z" fill="#F9F9F9"/>
</svg>
