<svg width="30" height="32" viewBox="0 0 30 32" fill="none" xmlns="http://www.w3.org/2000/svg">
<path d="M0.769962 29.0083L0.108056 29.7599L1.63077 31.0592L2.29268 30.3076L0.769962 29.0083ZM26.7156 2.57362C27.0812 2.1585 27.0367 1.53113 26.6162 1.17235C26.1957 0.81357 25.5585 0.859239 25.1929 1.27436L26.7156 2.57362ZM4.34859 3.21071L3.5727 2.57796L2.28308 4.10976L3.05897 4.74252L4.34859 3.21071ZM26.1019 2.86732C26.6199 2.66394 26.8737 2.08596 26.6687 1.57637C26.4637 1.06677 25.8775 0.81854 25.3594 1.02192L26.1019 2.86732ZM26.8141 2.34322C26.9832 1.81994 26.6899 1.26197 26.159 1.09697C25.6281 0.931969 25.0607 1.22241 24.8916 1.74569L26.8141 2.34322ZM27.2726 24.4894L28.0485 25.1222L29.3382 23.5904L28.5623 22.9576L27.2726 24.4894ZM2.29268 30.3076L26.7156 2.57362L25.1929 1.27436L0.769962 29.0083L2.29268 30.3076ZM3.05897 4.74252C4.69666 6.07809 7.04536 6.51698 9.44426 6.53642C11.8748 6.55613 14.5413 6.14563 16.9888 5.60448C19.4437 5.06172 21.7184 4.37838 23.3765 3.83213C24.2066 3.55866 24.8848 3.31871 25.3567 3.14661C25.5927 3.06054 25.7773 2.99138 25.9037 2.94342C25.9669 2.91943 26.0156 2.90074 26.0489 2.88789C26.0656 2.88145 26.0784 2.87648 26.0872 2.87303C26.0917 2.87131 26.0951 2.86996 26.0976 2.86901C26.0988 2.86853 26.0997 2.86815 26.1005 2.86787C26.1008 2.86773 26.1012 2.86759 26.1014 2.86752C26.1016 2.86741 26.1019 2.86732 25.7306 1.94462C25.3594 1.02192 25.3595 1.02189 25.3595 1.02187C25.3595 1.0219 25.3594 1.02191 25.3593 1.02197C25.359 1.02208 25.3585 1.02229 25.3577 1.0226C25.3561 1.02321 25.3535 1.02421 25.35 1.02559C25.3429 1.02836 25.3319 1.03263 25.3171 1.03836C25.2874 1.04982 25.2425 1.06707 25.1831 1.08958C25.0644 1.13462 24.8881 1.2007 24.6608 1.28357C24.2062 1.44935 23.5485 1.68213 22.7414 1.94802C21.125 2.4805 18.9197 3.14244 16.5523 3.66586C14.1776 4.1909 11.6796 4.56749 9.46673 4.54955C7.22226 4.53136 5.44871 4.10788 4.34859 3.21071L3.05897 4.74252ZM25.8528 2.04445C24.8916 1.74569 24.8915 1.74599 24.8914 1.74635C24.8913 1.74654 24.8912 1.74697 24.891 1.74737C24.8908 1.74817 24.8904 1.74921 24.89 1.75049C24.8892 1.75305 24.8881 1.75657 24.8867 1.76104C24.8838 1.76997 24.8798 1.78269 24.8746 1.79909C24.8643 1.8319 24.8496 1.87946 24.8308 1.94098C24.7934 2.06401 24.7402 2.24296 24.6754 2.47151C24.546 2.92844 24.3703 3.58448 24.1827 4.3889C23.8082 5.99502 23.3832 8.20598 23.1876 10.6122C22.9924 13.0123 23.0218 15.6485 23.5824 18.0883C24.1435 20.53 25.2534 22.8427 27.2726 24.4894L28.5623 22.9576C26.9923 21.6773 26.0495 19.8164 25.5504 17.6445C25.051 15.4707 25.0128 13.053 25.1988 10.7651C25.3844 8.48334 25.7892 6.3722 26.1492 4.82822C26.3289 4.05759 26.4966 3.43157 26.6188 3.00022C26.6799 2.78461 26.7295 2.61786 26.7635 2.50622C26.7805 2.45041 26.7935 2.4084 26.8022 2.38097C26.8065 2.36725 26.8097 2.35718 26.8117 2.35085C26.8127 2.34769 26.8134 2.34547 26.8138 2.34419C26.814 2.34355 26.8141 2.34315 26.8142 2.34299C26.8142 2.34291 26.8142 2.34296 26.8142 2.34292C26.8142 2.34304 26.8141 2.34322 25.8528 2.04445Z" fill="#F9F9F9"/>
</svg>
