<svg width="40" height="40" viewBox="0 0 40 40" fill="none" xmlns="http://www.w3.org/2000/svg">
<path d="M33.5609 16.3344C32.3844 15.8172 31.0312 16.4367 30.5531 17.7109L27.8125 24.375H26.932V6.25C26.932 4.875 25.893 3.75 24.6234 3.75C23.3531 3.75 22.3148 4.875 22.3148 6.25V18.1055L21.1602 18.125V2.5C21.1602 1.125 20.1211 0 18.8516 0C17.582 0 16.543 1.125 16.543 2.5V18.1055L15.3906 18.125V5C15.3906 3.625 14.3516 2.5 13.082 2.5C11.8117 2.5 10.7734 3.625 10.7734 5V19.3555L9.61719 19.375V10C9.61719 8.625 8.57813 7.5 7.30859 7.5C6.03906 7.5 5 8.625 5 10V26.875C5 32.7969 7.90078 40 18.2031 40C21.3906 40 24.4078 39.4531 26.0672 38.3594C27.1078 37.6734 28.0029 36.7891 28.7016 35.757C29.2236 34.9868 29.6438 34.1523 29.9516 33.2742L34.8305 19.5914C35.3125 18.3172 34.7375 16.8523 33.5609 16.3344Z" fill="#F9F9F9"/>
</svg>
