<svg width="44" height="35" viewBox="0 0 44 35" fill="none" xmlns="http://www.w3.org/2000/svg">
<path d="M22 10.9375C22 8.03669 20.8477 5.2547 18.7965 3.20352C16.7453 1.15234 13.9633 0 11.0625 0C8.16169 0 5.3797 1.15234 3.32852 3.20352C1.27734 5.2547 0.125 8.03669 0.125 10.9375C0.125 13.755 0.5225 17.8975 4.5 21.875L22 35C22 35 35.5225 25.8525 39.5 21.875C43.4775 17.8975 43.875 13.755 43.875 10.9375C43.875 8.03669 42.7227 5.2547 40.6715 3.20352C38.6203 1.15234 35.8383 0 32.9375 0C30.0367 0 27.2547 1.15234 25.2035 3.20352C23.1523 5.2547 22 8.03669 22 10.9375Z" fill="#F9F9F9"/>
</svg>
