<svg width="0" height="0" class="hidden">
  <symbol fill="none" xmlns="http://www.w3.org/2000/svg" viewBox="0 0 40 40" id="linkedin">
    <rect width="40" height="40" rx="10" fill="#2D3037"></rect>
    <path d="M29.959 21.7184V29.0974H25.681V22.2124C25.681 20.4824 25.062 19.3024 23.514 19.3024C22.332 19.3024 21.628 20.0984 21.319 20.8674C21.206 21.1424 21.177 21.5254 21.177 21.9104V29.0974H16.897C16.897 29.0974 16.955 17.4374 16.897 16.2284H21.177V18.0524L21.149 18.0944H21.177V18.0524C21.745 17.1774 22.76 15.9264 25.033 15.9264C27.848 15.9264 29.959 17.7664 29.959 21.7184ZM12.421 10.0254C10.958 10.0254 10 10.9854 10 12.2484C10 13.4834 10.93 14.4724 12.365 14.4724H12.393C13.886 14.4724 14.813 13.4834 14.813 12.2484C14.787 10.9854 13.886 10.0254 12.421 10.0254ZM10.254 29.0974H14.532V16.2284H10.254V29.0974Z" fill="#F9F9F9"></path>
  </symbol>
  <symbol fill="none" xmlns="http://www.w3.org/2000/svg" viewBox="0 0 113 60" id="logo">
    <path d="M1.92 53V36.2H3.936V43.664H11.808V36.2H13.824V53H11.808V45.488H3.936V53H1.92ZM21.99 53.216C21.142 53.216 20.358 53.032 19.638 52.664C18.934 52.296 18.374 51.752 17.958 51.032C17.558 50.296 17.358 49.408 17.358 48.368V41.264H19.254V48.224C19.254 49.392 19.542 50.24 20.118 50.768C20.71 51.296 21.502 51.56 22.494 51.56C23.614 51.56 24.534 51.192 25.254 50.456C25.974 49.72 26.334 48.624 26.334 47.168V41.264H28.23V53H26.382V51.008H26.046C25.79 51.568 25.35 52.08 24.726 52.544C24.102 52.992 23.19 53.216 21.99 53.216ZM36.9253 53.336C35.9173 53.336 34.9893 53.096 34.1413 52.616C33.2933 52.136 32.6213 51.44 32.1253 50.528C31.6293 49.616 31.3813 48.536 31.3813 47.288V46.976C31.3813 45.728 31.6293 44.656 32.1253 43.76C32.6213 42.848 33.2853 42.152 34.1173 41.672C34.9653 41.176 35.9013 40.928 36.9253 40.928C37.7413 40.928 38.4293 41.04 38.9893 41.264C39.5653 41.472 40.0293 41.744 40.3813 42.08C40.7333 42.4 41.0053 42.744 41.1973 43.112H41.5333V36.2H43.4293V53H41.5813V51.056H41.2453C40.9253 51.648 40.4293 52.176 39.7573 52.64C39.0853 53.104 38.1413 53.336 36.9253 53.336ZM37.4293 51.656C38.6453 51.656 39.6293 51.272 40.3813 50.504C41.1493 49.72 41.5333 48.632 41.5333 47.24V47.024C41.5333 45.632 41.1493 44.552 40.3813 43.784C39.6293 43 38.6453 42.608 37.4293 42.608C36.2293 42.608 35.2373 43 34.4533 43.784C33.6853 44.552 33.3013 45.632 33.3013 47.024V47.24C33.3013 48.632 33.6853 49.72 34.4533 50.504C35.2373 51.272 36.2293 51.656 37.4293 51.656ZM46.6346 53V50.552L54.0986 43.184V42.92H46.8746V41.264H56.0906V43.712L48.6026 51.08V51.368H56.2826V53H46.6346ZM64.3455 53.336C63.1615 53.336 62.1215 53.088 61.2255 52.592C60.3295 52.08 59.6335 51.368 59.1375 50.456C58.6415 49.544 58.3935 48.488 58.3935 47.288V47C58.3935 45.784 58.6415 44.72 59.1375 43.808C59.6335 42.896 60.3215 42.192 61.2015 41.696C62.0815 41.184 63.0895 40.928 64.2255 40.928C65.3295 40.928 66.3055 41.168 67.1535 41.648C68.0015 42.112 68.6655 42.784 69.1455 43.664C69.6255 44.544 69.8655 45.576 69.8655 46.76V47.624H60.2895C60.3375 48.888 60.7455 49.88 61.5135 50.6C62.2815 51.304 63.2415 51.656 64.3935 51.656C65.4015 51.656 66.1775 51.424 66.7215 50.96C67.2655 50.496 67.6815 49.944 67.9695 49.304L69.6015 50.096C69.3615 50.592 69.0255 51.088 68.5935 51.584C68.1775 52.08 67.6255 52.496 66.9375 52.832C66.2655 53.168 65.4015 53.336 64.3455 53.336ZM60.3135 46.064H67.9455C67.8815 44.976 67.5055 44.128 66.8175 43.52C66.1455 42.912 65.2815 42.608 64.2255 42.608C63.1535 42.608 62.2735 42.912 61.5855 43.52C60.8975 44.128 60.4735 44.976 60.3135 46.064ZM72.9326 53V41.264H74.7806V43.256H75.1166C75.3726 42.696 75.8046 42.192 76.4126 41.744C77.0366 41.28 77.9486 41.048 79.1486 41.048C80.0286 41.048 80.8126 41.232 81.5006 41.6C82.2046 41.968 82.7646 42.512 83.1806 43.232C83.5966 43.952 83.8046 44.84 83.8046 45.896V53H81.9086V46.04C81.9086 44.872 81.6126 44.024 81.0206 43.496C80.4446 42.968 79.6606 42.704 78.6686 42.704C77.5326 42.704 76.6046 43.072 75.8846 43.808C75.1806 44.544 74.8286 45.64 74.8286 47.096V53H72.9326ZM87.4114 53V36.2H89.3074V46.088H89.6434L95.0194 41.264H97.6594L91.1554 46.976L97.8514 53H95.2354L89.6434 47.888H89.3074V53H87.4114ZM104.877 53.336C103.693 53.336 102.645 53.088 101.733 52.592C100.837 52.096 100.133 51.4 99.6206 50.504C99.1246 49.592 98.8766 48.52 98.8766 47.288V46.976C98.8766 45.76 99.1246 44.696 99.6206 43.784C100.133 42.872 100.837 42.168 101.733 41.672C102.645 41.176 103.693 40.928 104.877 40.928C106.061 40.928 107.101 41.176 107.997 41.672C108.909 42.168 109.613 42.872 110.109 43.784C110.621 44.696 110.877 45.76 110.877 46.976V47.288C110.877 48.52 110.621 49.592 110.109 50.504C109.613 51.4 108.909 52.096 107.997 52.592C107.101 53.088 106.061 53.336 104.877 53.336ZM104.877 51.632C106.125 51.632 107.117 51.24 107.853 50.456C108.605 49.656 108.981 48.584 108.981 47.24V47.024C108.981 45.68 108.605 44.616 107.853 43.832C107.117 43.032 106.125 42.632 104.877 42.632C103.645 42.632 102.653 43.032 101.901 43.832C101.149 44.616 100.773 45.68 100.773 47.024V47.24C100.773 48.584 101.149 49.656 101.901 50.456C102.653 51.24 103.645 51.632 104.877 51.632Z" fill="#F9F9F9"></path>
    <path d="M34.368 24.336C33.184 24.336 32.144 24.088 31.248 23.592C30.352 23.08 29.656 22.368 29.16 21.456C28.664 20.544 28.416 19.488 28.416 18.288V18C28.416 16.784 28.664 15.72 29.16 14.808C29.656 13.896 30.344 13.192 31.224 12.696C32.104 12.184 33.112 11.928 34.248 11.928C35.352 11.928 36.328 12.168 37.176 12.648C38.024 13.112 38.688 13.784 39.168 14.664C39.648 15.544 39.888 16.576 39.888 17.76V18.624H30.312C30.36 19.888 30.768 20.88 31.536 21.6C32.304 22.304 33.264 22.656 34.416 22.656C35.424 22.656 36.2 22.424 36.744 21.96C37.288 21.496 37.704 20.944 37.992 20.304L39.624 21.096C39.384 21.592 39.048 22.088 38.616 22.584C38.2 23.08 37.648 23.496 36.96 23.832C36.288 24.168 35.424 24.336 34.368 24.336ZM30.336 17.064H37.968C37.904 15.976 37.528 15.128 36.84 14.52C36.168 13.912 35.304 13.608 34.248 13.608C33.176 13.608 32.296 13.912 31.608 14.52C30.92 15.128 30.496 15.976 30.336 17.064ZM42.7151 24V12.264H44.5631V14.256H44.8991C45.1551 13.696 45.5871 13.192 46.1951 12.744C46.8191 12.28 47.7311 12.048 48.9311 12.048C49.8111 12.048 50.5951 12.232 51.2831 12.6C51.9871 12.968 52.5471 13.512 52.9631 14.232C53.3791 14.952 53.5871 15.84 53.5871 16.896V24H51.6911V17.04C51.6911 15.872 51.3951 15.024 50.8031 14.496C50.2271 13.968 49.4431 13.704 48.4511 13.704C47.3151 13.704 46.3871 14.072 45.6671 14.808C44.9631 15.544 44.6111 16.64 44.6111 18.096V24H42.7151Z" fill="#F9F9F9"></path>
    <path d="M2.12793 24.0002V22.2002H4.47993V9.0002H2.12793V7.2002H18.6799C20.8879 7.2002 22.5919 7.7602 23.7919 8.8802C25.0079 10.0002 25.6159 11.7202 25.6159 14.0402V17.1602C25.6159 19.4962 25.0079 21.2242 23.7919 22.3442C22.5919 23.4482 20.8879 24.0002 18.6799 24.0002H2.12793ZM6.49593 22.1762H18.6799C20.3119 22.1762 21.5439 21.7762 22.3759 20.9762C23.2079 20.1762 23.6239 18.9362 23.6239 17.2562V13.9682C23.6239 12.2562 23.2079 11.0082 22.3759 10.2242C21.5439 9.4402 20.3119 9.0482 18.6799 9.0482H6.49593V22.1762Z" fill="#F9F9F9"></path>
  </symbol>
  <symbol fill="none" xmlns="http://www.w3.org/2000/svg" viewBox="0 0 40 40" id="phone">
    <rect width="40" height="40" rx="10" fill="#2D3037"></rect>
    <path d="M14.62 18.79C16.06 21.62 18.38 23.93 21.21 25.38L23.41 23.18C23.68 22.91 24.08 22.82 24.43 22.94C25.55 23.31 26.76 23.51 28 23.51C28.55 23.51 29 23.96 29 24.51V28C29 28.55 28.55 29 28 29C18.61 29 11 21.39 11 12C11 11.45 11.45 11 12 11H15.5C16.05 11 16.5 11.45 16.5 12C16.5 13.25 16.7 14.45 17.07 15.57C17.18 15.92 17.1 16.31 16.82 16.59L14.62 18.79Z" fill="#F9F9F9"></path>
  </symbol>
  <symbol fill="none" xmlns="http://www.w3.org/2000/svg" viewBox="0 0 40 40" id="telegram">
    <rect width="40" height="40" rx="10" fill="#2D3037"></rect>
    <g clip-path="url(#clip0_2_44)">
      <path d="M29.0517 10.13L7.78878 18.3718C6.93312 18.7556 6.64372 19.5243 7.58197 19.9414L13.0368 21.6839L26.2259 13.4906C26.9461 12.9762 27.6833 13.1134 27.0489 13.6792L15.7212 23.9887L15.3654 28.3516C15.695 29.0252 16.2985 29.0284 16.6834 28.6936L19.8174 25.7128L25.1848 29.7528C26.4314 30.4947 27.1098 30.016 27.378 28.6562L30.8985 11.8998C31.2641 10.2262 30.6407 9.48873 29.0517 10.13Z" fill="#F9F9F9"></path>
    </g>
    <defs>
      <clipPath id="clip0_2_44">
        <rect width="24" height="24" fill="white" transform="translate(7 8)"></rect>
      </clipPath>
    </defs>
  </symbol>
  <symbol fill="none" xmlns="http://www.w3.org/2000/svg" viewBox="0 0 103 75" id="title_arrow">
    <path d="M64.2359 72.9363C64.3048 73.006 66.4166 73.5394 68.9284 74.1211C71.4406 74.7029 73.5231 75.0899 73.5566 74.9819C73.5898 74.8735 73.8497 73.1167 74.1339 71.0775C74.7049 66.9827 76.0872 62.2016 77.5644 59.2115C82.1686 49.8928 90.4294 43.7224 100.449 42.1187L103 41.7102V37.5936V33.4767L100.688 33.0858C85.5371 30.5246 75.6598 19.1099 73.8121 2.02778C73.6915 0.912335 73.5473 -3.15905e-06 73.4918 -3.15905e-06C72.9809 -3.15905e-06 64.5143 2.056 64.3542 2.21888C64.2384 2.33665 64.3246 3.38234 64.5459 4.54224C66.9959 17.3861 74.0108 27.8375 83.114 32.2075L85.2976 33.2558L40.3941 33.3379L0 33.39L0 41.7213L40.4671 41.7735L85.2647 41.8559L82.5079 43.2633C75.3562 46.9143 69.694 54.0762 66.3595 63.6892C65.4094 66.4279 63.9756 72.6715 64.2359 72.9363Z" fill="#F9F9F9" ></path>
  </symbol>
  <symbol fill="none" xmlns="http://www.w3.org/2000/svg" viewBox="0 0 234 153" id="you">
    <mask id="path-1-outside-1_7_15495" maskUnits="userSpaceOnUse" x="-3" y="-2" width="239" height="157" fill="black">
      <rect fill="white" x="-3" y="-2" width="239" height="157"></rect>
      <path d="M44.7266 92.9922V151H30.0781V92.9922L0.292969 2.66016H16.2109L37.5977 71.9961L59.4727 2.66016H74.5117L44.7266 92.9922ZM81.6914 44.6523C81.6914 39.1836 82.0495 33.8451 82.7656 28.6367C83.4818 23.3633 85.0117 18.6758 87.3555 14.5742C89.6992 10.4076 93.0521 7.08724 97.4141 4.61328C101.841 2.07422 107.733 0.804688 115.09 0.804688C120.038 0.804688 124.302 1.39062 127.883 2.5625C131.464 3.73438 134.491 5.36198 136.965 7.44531C139.439 9.46354 141.424 11.8724 142.922 14.6719C144.484 17.4714 145.656 20.4987 146.438 23.7539C147.284 27.0091 147.837 30.4271 148.098 34.0078C148.358 37.5234 148.488 41.0391 148.488 44.5547V108.812C148.488 114.281 148.13 119.652 147.414 124.926C146.698 130.134 145.168 134.822 142.824 138.988C140.48 143.09 137.095 146.41 132.668 148.949C128.306 151.423 122.447 152.66 115.09 152.66C110.142 152.66 105.878 152.074 102.297 150.902C98.7161 149.73 95.6888 148.135 93.2148 146.117C90.7409 144.034 88.7227 141.592 87.1602 138.793C85.6628 135.993 84.4909 132.966 83.6445 129.711C82.8633 126.456 82.3424 123.07 82.082 119.555C81.8216 116.039 81.6914 112.491 81.6914 108.91V44.6523ZM115.09 14.8672C110.923 14.8672 107.603 15.6484 105.129 17.2109C102.655 18.7734 100.767 20.9219 99.4648 23.6562C98.2279 26.3255 97.4141 29.4831 97.0234 33.1289C96.6328 36.7096 96.4375 40.5833 96.4375 44.75V108.812C96.4375 112.719 96.6003 116.495 96.9258 120.141C97.2513 123.721 98.0326 126.879 99.2695 129.613C100.507 132.348 102.362 134.529 104.836 136.156C107.31 137.784 110.728 138.598 115.09 138.598C119.257 138.598 122.577 137.816 125.051 136.254C127.525 134.691 129.38 132.576 130.617 129.906C131.919 127.172 132.766 124.014 133.156 120.434C133.547 116.788 133.742 112.882 133.742 108.715V44.6523C133.742 40.7461 133.579 37.0026 133.254 33.4219C132.928 29.776 132.147 26.5859 130.91 23.8516C129.673 21.1172 127.818 18.9362 125.344 17.3086C122.87 15.681 119.452 14.8672 115.09 14.8672ZM233.305 2.66016V114.379C233.305 119.978 232.914 125.121 232.133 129.809C231.352 134.431 229.757 138.467 227.348 141.918C225.004 145.303 221.651 147.94 217.289 149.828C212.927 151.716 207.165 152.66 200.004 152.66C192.842 152.66 187.081 151.716 182.719 149.828C178.357 147.94 174.971 145.303 172.562 141.918C170.219 138.467 168.656 134.431 167.875 129.809C167.094 125.121 166.703 119.978 166.703 114.379V2.66016H181.449V113.695C181.449 117.471 181.579 120.889 181.84 123.949C182.165 127.009 182.914 129.646 184.086 131.859C185.323 134.008 187.178 135.668 189.652 136.84C192.126 138.012 195.577 138.598 200.004 138.598C204.366 138.598 207.784 138.012 210.258 136.84C212.797 135.668 214.685 134.008 215.922 131.859C217.159 129.646 217.908 127.009 218.168 123.949C218.493 120.889 218.656 117.471 218.656 113.695V2.66016H233.305Z"></path>
    </mask>
    <path d="M44.7266 92.9922L42.8272 92.3659L42.7266 92.671V92.9922H44.7266ZM44.7266 151V153H46.7266V151H44.7266ZM30.0781 151H28.0781V153H30.0781V151ZM30.0781 92.9922H32.0781V92.671L31.9775 92.3659L30.0781 92.9922ZM0.292969 2.66016V0.660156H-2.47241L-1.60644 3.28645L0.292969 2.66016ZM16.2109 2.66016L18.1221 2.07066L17.687 0.660156H16.2109V2.66016ZM37.5977 71.9961L35.6865 72.5856L37.5761 78.7117L39.505 72.5978L37.5977 71.9961ZM59.4727 2.66016V0.660156H58.0065L57.5653 2.05841L59.4727 2.66016ZM74.5117 2.66016L76.4111 3.28645L77.2771 0.660156H74.5117V2.66016ZM42.7266 92.9922V151H46.7266V92.9922H42.7266ZM44.7266 149H30.0781V153H44.7266V149ZM32.0781 151V92.9922H28.0781V151H32.0781ZM31.9775 92.3659L2.19238 2.03386L-1.60644 3.28645L28.1787 93.6185L31.9775 92.3659ZM0.292969 4.66016H16.2109V0.660156H0.292969V4.66016ZM14.2998 3.24965L35.6865 72.5856L39.5088 71.4066L18.1221 2.07066L14.2998 3.24965ZM39.505 72.5978L61.38 3.26191L57.5653 2.05841L35.6903 71.3943L39.505 72.5978ZM59.4727 4.66016H74.5117V0.660156H59.4727V4.66016ZM72.6123 2.03386L42.8272 92.3659L46.626 93.6185L76.4111 3.28645L72.6123 2.03386ZM82.7656 28.6367L84.747 28.9092L84.7474 28.9059L82.7656 28.6367ZM87.3555 14.5742L89.092 15.5665L89.0986 15.5547L87.3555 14.5742ZM97.4141 4.61328L98.4008 6.35297L98.4091 6.34819L97.4141 4.61328ZM136.965 7.44531L135.677 8.97514L135.689 8.98518L135.701 8.99504L136.965 7.44531ZM142.922 14.6719L141.158 15.6152L141.167 15.631L141.175 15.6466L142.922 14.6719ZM146.438 23.7539L144.493 24.2206L144.497 24.239L144.502 24.2572L146.438 23.7539ZM148.098 34.0078L146.103 34.1529L146.103 34.1556L148.098 34.0078ZM147.414 124.926L149.395 125.198L149.396 125.195L147.414 124.926ZM142.824 138.988L144.561 139.981L144.567 139.969L142.824 138.988ZM132.668 148.949L133.655 150.689L133.663 150.684L132.668 148.949ZM102.297 150.902L101.675 152.803L102.297 150.902ZM93.2148 146.117L91.9266 147.647L91.9385 147.657L91.9506 147.667L93.2148 146.117ZM87.1602 138.793L85.3966 139.736L85.405 139.752L85.4138 139.768L87.1602 138.793ZM83.6445 129.711L81.6998 130.178L81.7041 130.196L81.7089 130.214L83.6445 129.711ZM99.4648 23.6562L97.6591 22.7964L97.6546 22.8058L97.6502 22.8153L99.4648 23.6562ZM97.0234 33.1289L99.0116 33.3458L99.0121 33.342L97.0234 33.1289ZM96.9258 120.141L94.9337 120.318L94.934 120.322L96.9258 120.141ZM104.836 136.156L105.935 134.485L104.836 136.156ZM125.051 136.254L123.983 134.563L125.051 136.254ZM130.617 129.906L128.811 129.046L128.807 129.056L128.803 129.065L130.617 129.906ZM133.156 120.434L135.144 120.65L135.145 120.647L133.156 120.434ZM133.254 33.4219L131.262 33.5997L131.262 33.6029L133.254 33.4219ZM83.6914 44.6523C83.6914 39.2711 84.0437 34.0237 84.747 28.9092L80.7843 28.3643C80.0552 33.6664 79.6914 39.0961 79.6914 44.6523H83.6914ZM84.7474 28.9059C85.4334 23.8549 86.8908 19.4185 89.092 15.5665L85.619 13.5819C83.1326 17.933 81.5302 22.8717 80.7838 28.3676L84.7474 28.9059ZM89.0986 15.5547C91.2551 11.7211 94.3391 8.65657 98.4007 6.35295L96.4274 2.87361C91.7651 5.5179 88.1434 9.09403 85.6123 13.5937L89.0986 15.5547ZM98.4091 6.34819C102.429 4.04293 107.937 2.80469 115.09 2.80469V-1.19531C107.529 -1.19531 101.254 0.105511 96.419 2.87837L98.4091 6.34819ZM115.09 2.80469C119.889 2.80469 123.932 3.37405 127.261 4.46329L128.505 0.661705C124.672 -0.5928 120.187 -1.19531 115.09 -1.19531V2.80469ZM127.261 4.46329C130.637 5.56835 133.428 7.08193 135.677 8.97514L138.253 5.91549C135.553 3.64203 132.29 1.9004 128.505 0.661705L127.261 4.46329ZM135.701 8.99504C137.971 10.8471 139.786 13.0502 141.158 15.6152L144.685 13.7286C143.063 10.6946 140.907 8.07999 138.229 5.89558L135.701 8.99504ZM141.175 15.6466C142.645 18.2797 143.752 21.1352 144.493 24.2206L148.382 23.2872C147.56 19.8622 146.324 16.663 144.668 13.6971L141.175 15.6466ZM144.502 24.2572C145.316 27.3874 145.851 30.685 146.103 34.1529L150.092 33.8627C149.824 30.1691 149.252 26.6308 148.373 23.2506L144.502 24.2572ZM146.103 34.1556C146.36 37.6222 146.488 41.0885 146.488 44.5547H150.488C150.488 40.9896 150.356 37.4247 150.092 33.8601L146.103 34.1556ZM146.488 44.5547V108.812H150.488V44.5547H146.488ZM146.488 108.812C146.488 114.194 146.136 119.475 145.432 124.657L149.396 125.195C150.124 119.83 150.488 114.369 150.488 108.812H146.488ZM145.433 124.653C144.747 129.638 143.29 134.081 141.081 138.008L144.567 139.969C147.046 135.562 148.648 130.631 149.395 125.198L145.433 124.653ZM141.088 137.996C138.935 141.764 135.817 144.838 131.673 147.214L133.663 150.684C138.373 147.983 142.026 144.416 144.561 139.981L141.088 137.996ZM131.681 147.21C127.729 149.451 122.251 150.66 115.09 150.66V154.66C122.642 154.66 128.883 153.395 133.655 150.689L131.681 147.21ZM115.09 150.66C110.291 150.66 106.247 150.091 102.919 149.002L101.675 152.803C105.508 154.058 109.993 154.66 115.09 154.66V150.66ZM102.919 149.002C99.5308 147.893 96.7314 146.405 94.4791 144.567L91.9506 147.667C94.6462 149.866 97.9015 151.568 101.675 152.803L102.919 149.002ZM94.5031 144.587C92.2125 142.658 90.3501 140.405 88.9066 137.818L85.4138 139.768C87.0952 142.78 89.2693 145.409 91.9266 147.647L94.5031 144.587ZM88.9237 137.85C87.5052 135.198 86.3891 132.319 85.5802 129.208L81.7089 130.214C82.5927 133.613 83.8204 136.789 85.3966 139.736L88.9237 137.85ZM85.5893 129.244C84.8345 126.099 84.3294 122.821 84.0766 119.407L80.0875 119.702C80.3555 123.32 80.8921 126.812 81.6998 130.178L85.5893 129.244ZM84.0766 119.407C83.8198 115.941 83.6914 112.442 83.6914 108.91H79.6914C79.6914 112.539 79.8234 116.137 80.0875 119.702L84.0766 119.407ZM83.6914 108.91V44.6523H79.6914V108.91H83.6914ZM115.09 12.8672C110.698 12.8672 106.963 13.6872 104.061 15.52L106.197 18.9019C108.243 17.6097 111.149 16.8672 115.09 16.8672V12.8672ZM104.061 15.52C101.256 17.2916 99.1177 19.7334 97.6591 22.7964L101.271 24.5161C102.416 22.1103 104.054 20.2553 106.197 18.9019L104.061 15.52ZM97.6502 22.8153C96.3019 25.7249 95.4432 29.1039 95.0348 32.9158L99.0121 33.342C99.3849 29.8622 100.154 26.9261 101.279 24.4972L97.6502 22.8153ZM95.0352 32.912C94.6357 36.5749 94.4375 40.5218 94.4375 44.75H98.4375C98.4375 40.6449 98.63 36.8444 99.0116 33.3458L95.0352 32.912ZM94.4375 44.75V108.812H98.4375V44.75H94.4375ZM94.4375 108.812C94.4375 112.774 94.6026 116.61 94.9337 120.318L98.9179 119.963C98.598 116.38 98.4375 112.663 98.4375 108.812H94.4375ZM94.934 120.322C95.2758 124.082 96.1021 127.464 97.4473 130.438L101.092 128.789C99.963 126.294 99.2268 123.361 98.9176 119.96L94.934 120.322ZM97.4473 130.438C98.8381 133.512 100.942 135.988 103.737 137.827L105.935 134.485C103.782 133.069 102.175 131.183 101.092 128.789L97.4473 130.438ZM103.737 137.827C106.657 139.749 110.512 140.598 115.09 140.598V136.598C110.944 136.598 107.962 135.819 105.935 134.485L103.737 137.827ZM115.09 140.598C119.482 140.598 123.217 139.778 126.119 137.945L123.983 134.563C121.937 135.855 119.031 136.598 115.09 136.598V140.598ZM126.119 137.945C128.92 136.176 131.034 133.764 132.432 130.747L128.803 129.065C127.727 131.387 126.129 133.207 123.983 134.563L126.119 137.945ZM132.423 130.766C133.838 127.795 134.734 124.413 135.144 120.65L131.168 120.217C130.797 123.615 130.001 126.549 128.811 129.046L132.423 130.766ZM135.145 120.647C135.544 116.921 135.742 112.943 135.742 108.715H131.742C131.742 112.82 131.55 116.654 131.168 120.221L135.145 120.647ZM135.742 108.715V44.6523H131.742V108.715H135.742ZM135.742 44.6523C135.742 40.6908 135.577 36.8866 135.246 33.2408L131.262 33.6029C131.582 37.1186 131.742 40.8014 131.742 44.6523H135.742ZM135.246 33.244C134.905 29.4221 134.08 26.0053 132.732 23.0272L129.088 24.6759C130.215 27.1666 130.952 30.13 131.262 33.5997L135.246 33.244ZM132.732 23.0272C131.342 19.9529 129.238 17.4764 126.443 15.6378L124.245 18.9794C126.398 20.396 128.005 22.2815 129.088 24.6759L132.732 23.0272ZM126.443 15.6378C123.522 13.7163 119.668 12.8672 115.09 12.8672V16.8672C119.235 16.8672 122.217 17.6457 124.245 18.9794L126.443 15.6378ZM233.305 2.66016H235.305V0.660156H233.305V2.66016ZM232.133 129.809L234.105 130.142L234.106 130.137L232.133 129.809ZM227.348 141.918L225.708 140.773L225.703 140.78L227.348 141.918ZM182.719 149.828L181.924 151.664L182.719 149.828ZM172.562 141.918L170.908 143.042L170.92 143.06L170.933 143.077L172.562 141.918ZM167.875 129.809L165.902 130.137L165.903 130.142L167.875 129.809ZM166.703 2.66016V0.660156H164.703V2.66016H166.703ZM181.449 2.66016H183.449V0.660156H181.449V2.66016ZM181.84 123.949L179.847 124.119L179.849 124.14L179.851 124.161L181.84 123.949ZM184.086 131.859L182.318 132.795L182.335 132.827L182.353 132.857L184.086 131.859ZM210.258 136.84L209.42 135.024L209.411 135.028L209.402 135.032L210.258 136.84ZM215.922 131.859L217.655 132.857L217.662 132.846L217.668 132.835L215.922 131.859ZM218.168 123.949L216.179 123.738L216.177 123.759L216.175 123.78L218.168 123.949ZM218.656 2.66016V0.660156H216.656V2.66016H218.656ZM231.305 2.66016V114.379H235.305V2.66016H231.305ZM231.305 114.379C231.305 119.887 230.92 124.918 230.16 129.48L234.106 130.137C234.908 125.324 235.305 120.069 235.305 114.379H231.305ZM230.161 129.475C229.423 133.839 227.929 137.592 225.708 140.773L228.988 143.063C231.584 139.343 233.28 135.023 234.105 130.142L230.161 129.475ZM225.703 140.78C223.603 143.813 220.568 146.23 216.495 147.993L218.084 151.664C222.734 149.651 226.404 146.794 228.992 143.056L225.703 140.78ZM216.495 147.993C212.477 149.731 207.018 150.66 200.004 150.66V154.66C207.313 154.66 213.377 153.701 218.084 151.664L216.495 147.993ZM200.004 150.66C192.99 150.66 187.53 149.731 183.513 147.993L181.924 151.664C186.631 153.701 192.695 154.66 200.004 154.66V150.66ZM183.513 147.993C179.437 146.228 176.36 143.806 174.192 140.758L170.933 143.077C173.582 146.801 177.277 149.652 181.924 151.664L183.513 147.993ZM174.217 140.794C172.054 137.609 170.586 133.85 169.847 129.475L165.903 130.142C166.726 135.012 168.384 139.326 170.908 143.042L174.217 140.794ZM169.848 129.48C169.088 124.918 168.703 119.887 168.703 114.379H164.703C164.703 120.069 165.1 125.324 165.902 130.137L169.848 129.48ZM168.703 114.379V2.66016H164.703V114.379H168.703ZM166.703 4.66016H181.449V0.660156H166.703V4.66016ZM179.449 2.66016V113.695H183.449V2.66016H179.449ZM179.449 113.695C179.449 117.516 179.581 120.991 179.847 124.119L183.833 123.78C183.578 120.787 183.449 117.427 183.449 113.695H179.449ZM179.851 124.161C180.198 127.418 181.003 130.311 182.318 132.795L185.854 130.924C184.825 128.98 184.133 126.6 183.829 123.738L179.851 124.161ZM182.353 132.857C183.814 135.395 185.994 137.32 188.796 138.647L190.509 135.032C188.362 134.016 186.832 132.62 185.819 130.861L182.353 132.857ZM188.796 138.647C191.653 140.001 195.442 140.598 200.004 140.598V136.598C195.711 136.598 192.599 136.023 190.509 135.032L188.796 138.647ZM200.004 140.598C204.505 140.598 208.26 139.999 211.114 138.647L209.402 135.032C207.308 136.024 204.226 136.598 200.004 136.598V140.598ZM211.096 138.656C213.961 137.334 216.186 135.409 217.655 132.857L214.189 130.861C213.184 132.606 211.633 134.002 209.42 135.024L211.096 138.656ZM217.668 132.835C219.069 130.327 219.881 127.403 220.161 124.119L216.175 123.78C215.934 126.615 215.248 128.965 214.176 130.884L217.668 132.835ZM220.157 124.161C220.491 121.017 220.656 117.527 220.656 113.695H216.656C216.656 117.416 216.496 120.762 216.179 123.738L220.157 124.161ZM220.656 113.695V2.66016H216.656V113.695H220.656ZM218.656 4.66016H233.305V0.660156H218.656V4.66016Z" fill="#A7EC51" mask="url(#path-1-outside-1_7_15495)"></path>
  </symbol>
  <symbol fill="none" xmlns="http://www.w3.org/2000/svg" viewBox="0 0 426 226" id="num1">
    <path d="M101.36 225.06C63.28 225.06 36.9867 215.2 22.48 195.48C7.97333 175.533 0.720001 147.993 0.720001 112.86C0.720001 76.14 8.08667 48.26 22.82 29.22C37.78 9.95333 63.96 0.319997 101.36 0.319997C141.253 0.319997 168.453 10.18 182.96 29.9C197.693 49.62 205.06 77.16 205.06 112.52C205.06 149.24 197.58 177.233 182.62 196.5C167.887 215.54 140.8 225.06 101.36 225.06ZM101.36 215.54C137.853 215.54 162.333 206.7 174.8 189.02C187.267 171.113 193.5 145.613 193.5 112.52C193.5 80.1067 187.153 54.8333 174.46 36.7C161.993 18.5667 137.627 9.5 101.36 9.5C66.68 9.5 43.1067 18.4533 30.64 36.36C18.1733 54.04 11.94 79.54 11.94 112.86C11.94 145.047 18.2867 170.207 30.98 188.34C43.6733 206.473 67.1333 215.54 101.36 215.54ZM240.699 222.34V212.14H327.059V14.94L240.699 38.06V27.18L328.419 3.38H338.959V212.14H425.999V222.34H240.699Z" fill="#F9F9F9"></path>
  </symbol>
  <symbol fill="none" xmlns="http://www.w3.org/2000/svg" viewBox="0 0 420 226" id="num2">
    <path d="M101.36 225.06C63.28 225.06 36.9867 215.2 22.48 195.48C7.97333 175.533 0.720001 147.993 0.720001 112.86C0.720001 76.14 8.08667 48.26 22.82 29.22C37.78 9.95333 63.96 0.319997 101.36 0.319997C141.253 0.319997 168.453 10.18 182.96 29.9C197.693 49.62 205.06 77.16 205.06 112.52C205.06 149.24 197.58 177.233 182.62 196.5C167.887 215.54 140.8 225.06 101.36 225.06ZM101.36 215.54C137.853 215.54 162.333 206.7 174.8 189.02C187.267 171.113 193.5 145.613 193.5 112.52C193.5 80.1067 187.153 54.8333 174.46 36.7C161.993 18.5667 137.627 9.5 101.36 9.5C66.68 9.5 43.1067 18.4533 30.64 36.36C18.1733 54.04 11.94 79.54 11.94 112.86C11.94 145.047 18.2867 170.207 30.98 188.34C43.6733 206.473 67.1333 215.54 101.36 215.54ZM419.539 65.26C419.539 71.8333 417.159 79.0867 412.399 87.02C407.866 94.9533 396.306 102.773 377.719 110.48C359.132 118.187 345.079 124.08 335.559 128.16C326.266 132.013 316.632 136.547 306.659 141.76C296.686 146.747 287.506 152.527 279.119 159.1C270.959 165.673 264.386 173.72 259.399 183.24C254.866 191.4 252.372 201.147 251.919 212.48H419.199V222H240.699V217.24C240.699 203.187 242.966 191.173 247.499 181.2C252.259 171.227 258.492 162.84 266.199 156.04C274.132 149.013 282.632 142.893 291.699 137.68C300.992 132.24 310.512 127.593 320.259 123.74C330.232 119.66 344.626 113.993 363.439 106.74C382.252 99.26 394.379 91.8933 399.819 84.64C405.486 77.3867 408.319 70.9267 408.319 65.26C408.319 47.3533 403.446 33.64 393.699 24.12C383.952 14.3733 364.459 9.5 335.219 9.5C303.939 9.5 282.972 14.26 272.319 23.78C261.666 33.3 254.979 46.1067 252.259 62.2H241.039C243.079 49.0533 247.272 37.6067 253.619 27.86C260.192 18.1133 269.146 11.0867 280.479 6.77999C291.812 2.47333 310.172 0.319997 335.559 0.319997C360.266 0.319997 377.946 2.92666 388.599 8.14C399.479 13.3533 407.299 20.8333 412.059 30.58C417.046 40.3267 419.539 51.8867 419.539 65.26Z" fill="#F9F9F9"></path>
  </symbol>
  <symbol fill="none" xmlns="http://www.w3.org/2000/svg" viewBox="0 0 424 226" id="num3">
    <path d="M101.36 225.06C63.28 225.06 36.9867 215.2 22.48 195.48C7.97333 175.533 0.720001 147.993 0.720001 112.86C0.720001 76.14 8.08667 48.26 22.82 29.22C37.78 9.95333 63.96 0.319997 101.36 0.319997C141.253 0.319997 168.453 10.18 182.96 29.9C197.693 49.62 205.06 77.16 205.06 112.52C205.06 149.24 197.58 177.233 182.62 196.5C167.887 215.54 140.8 225.06 101.36 225.06ZM101.36 215.54C137.853 215.54 162.333 206.7 174.8 189.02C187.267 171.113 193.5 145.613 193.5 112.52C193.5 80.1067 187.153 54.8333 174.46 36.7C161.993 18.5667 137.627 9.5 101.36 9.5C66.68 9.5 43.1067 18.4533 30.64 36.36C18.1733 54.04 11.94 79.54 11.94 112.86C11.94 145.047 18.2867 170.207 30.98 188.34C43.6733 206.473 67.1333 215.54 101.36 215.54ZM422.599 58.8C422.599 69.2267 420.446 77.5 416.139 83.62C411.832 89.5133 405.486 94.2733 397.099 97.9C388.939 101.527 379.419 104.587 368.539 107.08C368.086 107.08 367.746 107.08 367.519 107.08C369.106 107.533 370.692 107.873 372.279 108.1C384.292 111.047 394.039 115.24 401.519 120.68C409.226 126.12 414.779 132.58 418.179 140.06C421.579 147.54 423.279 155.133 423.279 162.84C423.279 175.307 420.446 186.187 414.779 195.48C409.112 204.773 400.499 212.027 388.939 217.24C377.606 222.453 360.719 225.06 338.279 225.06C310.172 225.06 290.566 222.68 279.459 217.92C268.352 212.933 259.626 205.793 253.279 196.5C246.932 186.98 242.739 175.76 240.699 162.84H251.919C254.412 179.16 261.099 192.08 271.979 201.6C283.086 211.12 305.072 215.88 337.939 215.88C365.366 215.88 384.519 211.12 395.399 201.6C406.506 192.08 412.059 179.047 412.059 162.5C412.059 156.607 410.586 150.487 407.639 144.14C404.919 137.567 400.386 131.9 394.039 127.14C387.919 122.38 379.306 118.64 368.199 115.92C357.092 113.2 343.266 111.84 326.719 111.84H323.319V103.34H326.379C341.566 103.34 354.259 102.207 364.459 99.94C374.886 97.6733 383.499 94.9533 390.299 91.78C397.326 88.38 402.539 84.1867 405.939 79.2C409.566 74.2133 411.379 67.4133 411.379 58.8C411.379 43.16 406.619 31.0333 397.099 22.42C387.579 13.8067 368.312 9.5 339.299 9.5C305.752 9.5 283.766 14.26 273.339 23.78C263.139 33.3 256.679 46.1067 253.959 62.2H242.739C244.779 49.0533 248.859 37.9467 254.979 28.88C261.099 19.5867 269.486 12.56 280.139 7.79998C291.019 2.81332 310.852 0.319997 339.639 0.319997C364.572 0.319997 382.026 2.69999 391.999 7.45999C402.199 12.22 409.792 19.02 414.779 27.86C419.992 36.4733 422.599 46.7867 422.599 58.8Z" fill="#F9F9F9"></path>
  </symbol>
  <symbol fill="none" xmlns="http://www.w3.org/2000/svg" viewBox="0 0 176 256" id="arrow">
    <path d="M170.871 91.3625C171.034 91.1996 172.265 86.219 173.605 80.2954C174.946 74.3711 175.835 69.4608 175.582 69.3827C175.328 69.3054 171.218 68.7065 166.447 68.0527C156.866 66.7392 145.675 63.5189 138.67 60.0615C116.842 49.2844 102.347 29.8662 98.5178 6.26883L97.5425 0.25981L87.9156 0.291878L78.2879 0.323948L77.3918 5.77624C71.5212 41.4974 44.9046 64.8618 4.9712 69.349C2.36358 69.6418 0.231135 69.9886 0.23157 70.1194C0.235581 71.3235 5.11018 91.2585 5.49232 91.6345C5.76865 91.9065 8.21343 91.6954 10.9242 91.1647C40.9414 85.2915 65.3277 68.6797 75.4758 47.1944L77.9101 42.0406L78.4546 147.853L78.7993 255.762L98.2828 255.697L98.1813 147.615L98.0224 42.051L101.335 48.5363C109.93 65.3607 126.723 78.6477 149.23 86.4302C155.642 88.648 170.254 91.9779 170.871 91.3625Z" fill="#F9F9F9" class="arrow-icon"></path>
  </symbol>
  
  <symbol fill="none" xmlns="http://www.w3.org/2000/svg" viewBox="0 0 24 24" id="download">
    <path d="M12 16L7 11L8.4 9.55L11 12.15V4H13V12.15L15.6 9.55L17 11L12 16ZM6 20C5.45 20 4.97917 19.8042 4.5875 19.4125C4.19583 19.0208 4 18.55 4 18V15H6V18H18V15H20V18C20 18.55 19.8042 19.0208 19.4125 19.4125C19.0208 19.8042 18.55 20 18 20H6Z" fill="#F9F9F9"></path>
  </symbol>
  <symbol fill="none" xmlns="http://www.w3.org/2000/svg" viewBox="0 0 40 40" id="email">
    <rect width="40" height="40" rx="10" fill="#2D3037"></rect>
    <path d="M30 16.608V24.75C30.0001 25.5801 29.6824 26.3788 29.1123 26.9822C28.5422 27.5856 27.7628 27.948 26.934 27.995L26.75 28H13.25C12.4199 28.0001 11.6212 27.6824 11.0178 27.1123C10.4144 26.5422 10.052 25.7628 10.005 24.934L10 24.75V16.608L19.652 21.664C19.7594 21.7202 19.8788 21.7496 20 21.7496C20.1212 21.7496 20.2406 21.7202 20.348 21.664L30 16.608ZM13.25 12H26.75C27.5556 11.9999 28.3325 12.299 28.93 12.8393C29.5276 13.3795 29.9032 14.1225 29.984 14.924L20 20.154L10.016 14.924C10.0935 14.1543 10.443 13.4375 11.0017 12.9025C11.5605 12.3674 12.2917 12.0492 13.064 12.005L13.25 12Z" fill="#F9F9F9"></path>
  </symbol>
  <symbol fill="none" xmlns="http://www.w3.org/2000/svg" viewBox="0 0 40 40" id="hand">
    <path d="M33.5609 16.3344C32.3844 15.8172 31.0312 16.4367 30.5531 17.7109L27.8125 24.375H26.932V6.25C26.932 4.875 25.893 3.75 24.6234 3.75C23.3531 3.75 22.3148 4.875 22.3148 6.25V18.1055L21.1602 18.125V2.5C21.1602 1.125 20.1211 0 18.8516 0C17.582 0 16.543 1.125 16.543 2.5V18.1055L15.3906 18.125V5C15.3906 3.625 14.3516 2.5 13.082 2.5C11.8117 2.5 10.7734 3.625 10.7734 5V19.3555L9.61719 19.375V10C9.61719 8.625 8.57813 7.5 7.30859 7.5C6.03906 7.5 5 8.625 5 10V26.875C5 32.7969 7.90078 40 18.2031 40C21.3906 40 24.4078 39.4531 26.0672 38.3594C27.1078 37.6734 28.0029 36.7891 28.7016 35.757C29.2236 34.9868 29.6438 34.1523 29.9516 33.2742L34.8305 19.5914C35.3125 18.3172 34.7375 16.8523 33.5609 16.3344Z" fill="#F9F9F9"></path>
  </symbol>
  <symbol fill="none" xmlns="http://www.w3.org/2000/svg" viewBox="0 0 44 35" id="heart">
    <path d="M22 10.9375C22 8.03669 20.8477 5.2547 18.7965 3.20352C16.7453 1.15234 13.9633 0 11.0625 0C8.16169 0 5.3797 1.15234 3.32852 3.20352C1.27734 5.2547 0.125 8.03669 0.125 10.9375C0.125 13.755 0.5225 17.8975 4.5 21.875L22 35C22 35 35.5225 25.8525 39.5 21.875C43.4775 17.8975 43.875 13.755 43.875 10.9375C43.875 8.03669 42.7227 5.2547 40.6715 3.20352C38.6203 1.15234 35.8383 0 32.9375 0C30.0367 0 27.2547 1.15234 25.2035 3.20352C23.1523 5.2547 22 8.03669 22 10.9375Z" fill="#F9F9F9"></path>
  </symbol>
  <symbol fill="none" xmlns="http://www.w3.org/2000/svg" viewBox="0 0 30 42" id="lamp">
    <path d="M14.9993 0.166016C11.1316 0.166016 7.42228 1.70247 4.68737 4.43737C1.95247 7.17228 0.416016 10.8816 0.416016 14.7493C0.416016 19.7077 2.89518 24.0618 6.66602 26.7077V31.416C6.66602 31.9685 6.88551 32.4985 7.27621 32.8892C7.66691 33.2799 8.19681 33.4993 8.74935 33.4993H21.2493C21.8019 33.4993 22.3318 33.2799 22.7225 32.8892C23.1132 32.4985 23.3327 31.9685 23.3327 31.416V26.7077C27.1035 24.0618 29.5827 19.7077 29.5827 14.7493C29.5827 10.8816 28.0462 7.17228 25.3113 4.43737C22.5764 1.70247 18.8671 0.166016 14.9993 0.166016ZM8.74935 39.7493C8.74935 40.3019 8.96884 40.8318 9.35954 41.2225C9.75024 41.6132 10.2801 41.8327 10.8327 41.8327H19.166C19.7185 41.8327 20.2485 41.6132 20.6392 41.2225C21.0299 40.8318 21.2493 40.3019 21.2493 39.7493V37.666H8.74935V39.7493Z" fill="#F9F9F9"></path>
  </symbol>
</svg>