<svg width="30" height="42" viewBox="0 0 30 42" fill="none" xmlns="http://www.w3.org/2000/svg">
<path d="M14.9993 0.166016C11.1316 0.166016 7.42228 1.70247 4.68737 4.43737C1.95247 7.17228 0.416016 10.8816 0.416016 14.7493C0.416016 19.7077 2.89518 24.0618 6.66602 26.7077V31.416C6.66602 31.9685 6.88551 32.4985 7.27621 32.8892C7.66691 33.2799 8.19681 33.4993 8.74935 33.4993H21.2493C21.8019 33.4993 22.3318 33.2799 22.7225 32.8892C23.1132 32.4985 23.3327 31.9685 23.3327 31.416V26.7077C27.1035 24.0618 29.5827 19.7077 29.5827 14.7493C29.5827 10.8816 28.0462 7.17228 25.3113 4.43737C22.5764 1.70247 18.8671 0.166016 14.9993 0.166016ZM8.74935 39.7493C8.74935 40.3019 8.96884 40.8318 9.35954 41.2225C9.75024 41.6132 10.2801 41.8327 10.8327 41.8327H19.166C19.7185 41.8327 20.2485 41.6132 20.6392 41.2225C21.0299 40.8318 21.2493 40.3019 21.2493 39.7493V37.666H8.74935V39.7493Z" fill="#F9F9F9"/>
</svg>
