<svg width="113" height="60" viewBox="0 0 113 60" fill="none" xmlns="http://www.w3.org/2000/svg" preserveAspectRatio="xMidYMid meet">
   <defs>
      <linearGradient id='gradient' gradientUnits='objectBoundingBox' x1='0' y1='0' x2='1' y2='1'>
         <stop offset='0' stop-color='#6e7989'>
            <animate attributeName="stop-color"
               values="#6e7989;#393b41;transparent;#6e7989;#6e7989;" dur="20s" repeatCount="indefinite">
            </animate>
         </stop>
         <stop offset='.5' stop-color='#393b41'>
            <animate attributeName="stop-color"
               values="#393b41;#767f8c;#393b41;#6e7989;#767f8c;#393b41;" dur="20s" repeatCount="indefinite">
            </animate>
         </stop>
         <stop offset='1' stop-color='#393b41'>
            <animate attributeName="stop-color"
               values="#393b41;transparent;#767f8c;#393b41;" dur="20s" repeatCount="indefinite">
            </animate>
         </stop>
         <animateTransform attributeName="gradientTransform" type="rotate" from="0 .5 .5" to="360 .5 .5"
            dur="2s" repeatCount="indefinite" />
      </linearGradient>
     <linearGradient id='a' gradientUnits='objectBoundingBox' x1='0' y1='0' x2='1' y2='1'>
       <stop offset='0' stop-color='#393b41'>
            <animate attributeName="stop-color"
               values="#393b41;#767f8c;#6e7989;#767f8c;#393b41;" dur="20s" repeatCount="indefinite">
            </animate>
         </stop>
       
         <stop offset='.2' stop-color='#767f8c'>
            <animate attributeName="stop-color"
               values="#767f8c;#393b41;#767f8c;transparent;" dur="20s" repeatCount="indefinite">
            </animate>
         </stop>
           <stop offset='1' stop-color='#767f8c'>
            <animate attributeName="stop-color"
               values="#767f8c;#393b41;#6e7989;transparent;#767f8c;" dur="20s" repeatCount="indefinite">
            </animate>
         </stop>
         <animateTransform attributeName="gradientTransform" type="rotate" from="360 .5 .5" to="0 .5 .5"
            dur="2s" repeatCount="indefinite" />
      </linearGradient>
      
   </defs>
<path d="M1.92 53V36.2H3.936V43.664H11.808V36.2H13.824V53H11.808V45.488H3.936V53H1.92ZM21.99 53.216C21.142 53.216 20.358 53.032 19.638 52.664C18.934 52.296 18.374 51.752 17.958 51.032C17.558 50.296 17.358 49.408 17.358 48.368V41.264H19.254V48.224C19.254 49.392 19.542 50.24 20.118 50.768C20.71 51.296 21.502 51.56 22.494 51.56C23.614 51.56 24.534 51.192 25.254 50.456C25.974 49.72 26.334 48.624 26.334 47.168V41.264H28.23V53H26.382V51.008H26.046C25.79 51.568 25.35 52.08 24.726 52.544C24.102 52.992 23.19 53.216 21.99 53.216ZM36.9253 53.336C35.9173 53.336 34.9893 53.096 34.1413 52.616C33.2933 52.136 32.6213 51.44 32.1253 50.528C31.6293 49.616 31.3813 48.536 31.3813 47.288V46.976C31.3813 45.728 31.6293 44.656 32.1253 43.76C32.6213 42.848 33.2853 42.152 34.1173 41.672C34.9653 41.176 35.9013 40.928 36.9253 40.928C37.7413 40.928 38.4293 41.04 38.9893 41.264C39.5653 41.472 40.0293 41.744 40.3813 42.08C40.7333 42.4 41.0053 42.744 41.1973 43.112H41.5333V36.2H43.4293V53H41.5813V51.056H41.2453C40.9253 51.648 40.4293 52.176 39.7573 52.64C39.0853 53.104 38.1413 53.336 36.9253 53.336ZM37.4293 51.656C38.6453 51.656 39.6293 51.272 40.3813 50.504C41.1493 49.72 41.5333 48.632 41.5333 47.24V47.024C41.5333 45.632 41.1493 44.552 40.3813 43.784C39.6293 43 38.6453 42.608 37.4293 42.608C36.2293 42.608 35.2373 43 34.4533 43.784C33.6853 44.552 33.3013 45.632 33.3013 47.024V47.24C33.3013 48.632 33.6853 49.72 34.4533 50.504C35.2373 51.272 36.2293 51.656 37.4293 51.656ZM46.6346 53V50.552L54.0986 43.184V42.92H46.8746V41.264H56.0906V43.712L48.6026 51.08V51.368H56.2826V53H46.6346ZM64.3455 53.336C63.1615 53.336 62.1215 53.088 61.2255 52.592C60.3295 52.08 59.6335 51.368 59.1375 50.456C58.6415 49.544 58.3935 48.488 58.3935 47.288V47C58.3935 45.784 58.6415 44.72 59.1375 43.808C59.6335 42.896 60.3215 42.192 61.2015 41.696C62.0815 41.184 63.0895 40.928 64.2255 40.928C65.3295 40.928 66.3055 41.168 67.1535 41.648C68.0015 42.112 68.6655 42.784 69.1455 43.664C69.6255 44.544 69.8655 45.576 69.8655 46.76V47.624H60.2895C60.3375 48.888 60.7455 49.88 61.5135 50.6C62.2815 51.304 63.2415 51.656 64.3935 51.656C65.4015 51.656 66.1775 51.424 66.7215 50.96C67.2655 50.496 67.6815 49.944 67.9695 49.304L69.6015 50.096C69.3615 50.592 69.0255 51.088 68.5935 51.584C68.1775 52.08 67.6255 52.496 66.9375 52.832C66.2655 53.168 65.4015 53.336 64.3455 53.336ZM60.3135 46.064H67.9455C67.8815 44.976 67.5055 44.128 66.8175 43.52C66.1455 42.912 65.2815 42.608 64.2255 42.608C63.1535 42.608 62.2735 42.912 61.5855 43.52C60.8975 44.128 60.4735 44.976 60.3135 46.064ZM72.9326 53V41.264H74.7806V43.256H75.1166C75.3726 42.696 75.8046 42.192 76.4126 41.744C77.0366 41.28 77.9486 41.048 79.1486 41.048C80.0286 41.048 80.8126 41.232 81.5006 41.6C82.2046 41.968 82.7646 42.512 83.1806 43.232C83.5966 43.952 83.8046 44.84 83.8046 45.896V53H81.9086V46.04C81.9086 44.872 81.6126 44.024 81.0206 43.496C80.4446 42.968 79.6606 42.704 78.6686 42.704C77.5326 42.704 76.6046 43.072 75.8846 43.808C75.1806 44.544 74.8286 45.64 74.8286 47.096V53H72.9326ZM87.4114 53V36.2H89.3074V46.088H89.6434L95.0194 41.264H97.6594L91.1554 46.976L97.8514 53H95.2354L89.6434 47.888H89.3074V53H87.4114ZM104.877 53.336C103.693 53.336 102.645 53.088 101.733 52.592C100.837 52.096 100.133 51.4 99.6206 50.504C99.1246 49.592 98.8766 48.52 98.8766 47.288V46.976C98.8766 45.76 99.1246 44.696 99.6206 43.784C100.133 42.872 100.837 42.168 101.733 41.672C102.645 41.176 103.693 40.928 104.877 40.928C106.061 40.928 107.101 41.176 107.997 41.672C108.909 42.168 109.613 42.872 110.109 43.784C110.621 44.696 110.877 45.76 110.877 46.976V47.288C110.877 48.52 110.621 49.592 110.109 50.504C109.613 51.4 108.909 52.096 107.997 52.592C107.101 53.088 106.061 53.336 104.877 53.336ZM104.877 51.632C106.125 51.632 107.117 51.24 107.853 50.456C108.605 49.656 108.981 48.584 108.981 47.24V47.024C108.981 45.68 108.605 44.616 107.853 43.832C107.117 43.032 106.125 42.632 104.877 42.632C103.645 42.632 102.653 43.032 101.901 43.832C101.149 44.616 100.773 45.68 100.773 47.024V47.24C100.773 48.584 101.149 49.656 101.901 50.456C102.653 51.24 103.645 51.632 104.877 51.632Z" fill="url(#gradient)"/>
<path d="M34.368 24.336C33.184 24.336 32.144 24.088 31.248 23.592C30.352 23.08 29.656 22.368 29.16 21.456C28.664 20.544 28.416 19.488 28.416 18.288V18C28.416 16.784 28.664 15.72 29.16 14.808C29.656 13.896 30.344 13.192 31.224 12.696C32.104 12.184 33.112 11.928 34.248 11.928C35.352 11.928 36.328 12.168 37.176 12.648C38.024 13.112 38.688 13.784 39.168 14.664C39.648 15.544 39.888 16.576 39.888 17.76V18.624H30.312C30.36 19.888 30.768 20.88 31.536 21.6C32.304 22.304 33.264 22.656 34.416 22.656C35.424 22.656 36.2 22.424 36.744 21.96C37.288 21.496 37.704 20.944 37.992 20.304L39.624 21.096C39.384 21.592 39.048 22.088 38.616 22.584C38.2 23.08 37.648 23.496 36.96 23.832C36.288 24.168 35.424 24.336 34.368 24.336ZM30.336 17.064H37.968C37.904 15.976 37.528 15.128 36.84 14.52C36.168 13.912 35.304 13.608 34.248 13.608C33.176 13.608 32.296 13.912 31.608 14.52C30.92 15.128 30.496 15.976 30.336 17.064ZM42.7151 24V12.264H44.5631V14.256H44.8991C45.1551 13.696 45.5871 13.192 46.1951 12.744C46.8191 12.28 47.7311 12.048 48.9311 12.048C49.8111 12.048 50.5951 12.232 51.2831 12.6C51.9871 12.968 52.5471 13.512 52.9631 14.232C53.3791 14.952 53.5871 15.84 53.5871 16.896V24H51.6911V17.04C51.6911 15.872 51.3951 15.024 50.8031 14.496C50.2271 13.968 49.4431 13.704 48.4511 13.704C47.3151 13.704 46.3871 14.072 45.6671 14.808C44.9631 15.544 44.6111 16.64 44.6111 18.096V24H42.7151Z" fill="url(#gradient)"/>
<path d="M2.12793 24.0002V22.2002H4.47993V9.0002H2.12793V7.2002H18.6799C20.8879 7.2002 22.5919 7.7602 23.7919 8.8802C25.0079 10.0002 25.6159 11.7202 25.6159 14.0402V17.1602C25.6159 19.4962 25.0079 21.2242 23.7919 22.3442C22.5919 23.4482 20.8879 24.0002 18.6799 24.0002H2.12793ZM6.49593 22.1762H18.6799C20.3119 22.1762 21.5439 21.7762 22.3759 20.9762C23.2079 20.1762 23.6239 18.9362 23.6239 17.2562V13.9682C23.6239 12.2562 23.2079 11.0082 22.3759 10.2242C21.5439 9.4402 20.3119 9.0482 18.6799 9.0482H6.49593V22.1762Z" fill="url(#gradient)"/>
</svg>
