<svg width="80" height="58" viewBox="0 0 80 58" fill="none" xmlns="http://www.w3.org/2000/svg">
<path d="M29.9776 56.404C29.9243 56.458 28.2911 56.8705 26.3487 57.3204C24.4059 57.7702 22.7955 58.0696 22.7696 57.986C22.7439 57.9022 22.5429 56.5436 22.3231 54.9666C21.8816 51.7999 20.8125 48.1026 19.6702 45.7902C16.1096 38.5837 9.72126 33.812 1.97305 32.5718L-1.81405e-05 32.2559V29.0724V25.8887L1.7883 25.5863C13.5046 23.6057 21.1431 14.7783 22.572 1.56815C22.6652 0.705535 22.7767 -4.17232e-06 22.8196 -4.17232e-06C23.2148 -4.17232e-06 29.7622 1.58997 29.8861 1.71593C29.9756 1.80701 29.909 2.61568 29.7378 3.51266C27.8432 13.4453 22.4183 21.5277 15.3785 24.9071L13.6899 25.7178L48.4152 25.7813L79.6533 25.8216V32.2645L48.3587 32.3048L13.7153 32.3686L15.8472 33.457C21.3779 36.2804 25.7567 41.8189 28.3353 49.253C29.0701 51.3709 30.1788 56.1993 29.9776 56.404Z" fill="#131313"/>
</svg>
