<svg width="103" height="75" viewBox="0 0 103 75" fill="none" xmlns="http://www.w3.org/2000/svg">
<path d="M64.2359 72.9363C64.3048 73.006 66.4166 73.5394 68.9284 74.1211C71.4406 74.7029 73.5231 75.0899 73.5566 74.9819C73.5898 74.8735 73.8497 73.1167 74.1339 71.0775C74.7049 66.9827 76.0872 62.2016 77.5644 59.2115C82.1686 49.8928 90.4294 43.7224 100.449 42.1187L103 41.7102V37.5936V33.4767L100.688 33.0858C85.5371 30.5246 75.6598 19.1099 73.8121 2.02778C73.6915 0.912335 73.5473 -3.15905e-06 73.4918 -3.15905e-06C72.9809 -3.15905e-06 64.5143 2.056 64.3542 2.21888C64.2384 2.33665 64.3246 3.38234 64.5459 4.54224C66.9959 17.3861 74.0108 27.8375 83.114 32.2075L85.2976 33.2558L40.3941 33.3379L0 33.39L0 41.7213L40.4671 41.7735L85.2647 41.8559L82.5079 43.2633C75.3562 46.9143 69.694 54.0762 66.3595 63.6892C65.4094 66.4279 63.9756 72.6715 64.2359 72.9363Z" fill="#F9F9F9"/>
</svg>
