<svg width="234" height="153" viewBox="0 0 234 153" fill="none" xmlns="http://www.w3.org/2000/svg">
<mask id="path-1-outside-1_7_15495" maskUnits="userSpaceOnUse" x="-3" y="-2" width="239" height="157" fill="black">
<rect fill="white" x="-3" y="-2" width="239" height="157"/>
<path d="M44.7266 92.9922V151H30.0781V92.9922L0.292969 2.66016H16.2109L37.5977 71.9961L59.4727 2.66016H74.5117L44.7266 92.9922ZM81.6914 44.6523C81.6914 39.1836 82.0495 33.8451 82.7656 28.6367C83.4818 23.3633 85.0117 18.6758 87.3555 14.5742C89.6992 10.4076 93.0521 7.08724 97.4141 4.61328C101.841 2.07422 107.733 0.804688 115.09 0.804688C120.038 0.804688 124.302 1.39062 127.883 2.5625C131.464 3.73438 134.491 5.36198 136.965 7.44531C139.439 9.46354 141.424 11.8724 142.922 14.6719C144.484 17.4714 145.656 20.4987 146.438 23.7539C147.284 27.0091 147.837 30.4271 148.098 34.0078C148.358 37.5234 148.488 41.0391 148.488 44.5547V108.812C148.488 114.281 148.13 119.652 147.414 124.926C146.698 130.134 145.168 134.822 142.824 138.988C140.48 143.09 137.095 146.41 132.668 148.949C128.306 151.423 122.447 152.66 115.09 152.66C110.142 152.66 105.878 152.074 102.297 150.902C98.7161 149.73 95.6888 148.135 93.2148 146.117C90.7409 144.034 88.7227 141.592 87.1602 138.793C85.6628 135.993 84.4909 132.966 83.6445 129.711C82.8633 126.456 82.3424 123.07 82.082 119.555C81.8216 116.039 81.6914 112.491 81.6914 108.91V44.6523ZM115.09 14.8672C110.923 14.8672 107.603 15.6484 105.129 17.2109C102.655 18.7734 100.767 20.9219 99.4648 23.6562C98.2279 26.3255 97.4141 29.4831 97.0234 33.1289C96.6328 36.7096 96.4375 40.5833 96.4375 44.75V108.812C96.4375 112.719 96.6003 116.495 96.9258 120.141C97.2513 123.721 98.0326 126.879 99.2695 129.613C100.507 132.348 102.362 134.529 104.836 136.156C107.31 137.784 110.728 138.598 115.09 138.598C119.257 138.598 122.577 137.816 125.051 136.254C127.525 134.691 129.38 132.576 130.617 129.906C131.919 127.172 132.766 124.014 133.156 120.434C133.547 116.788 133.742 112.882 133.742 108.715V44.6523C133.742 40.7461 133.579 37.0026 133.254 33.4219C132.928 29.776 132.147 26.5859 130.91 23.8516C129.673 21.1172 127.818 18.9362 125.344 17.3086C122.87 15.681 119.452 14.8672 115.09 14.8672ZM233.305 2.66016V114.379C233.305 119.978 232.914 125.121 232.133 129.809C231.352 134.431 229.757 138.467 227.348 141.918C225.004 145.303 221.651 147.94 217.289 149.828C212.927 151.716 207.165 152.66 200.004 152.66C192.842 152.66 187.081 151.716 182.719 149.828C178.357 147.94 174.971 145.303 172.562 141.918C170.219 138.467 168.656 134.431 167.875 129.809C167.094 125.121 166.703 119.978 166.703 114.379V2.66016H181.449V113.695C181.449 117.471 181.579 120.889 181.84 123.949C182.165 127.009 182.914 129.646 184.086 131.859C185.323 134.008 187.178 135.668 189.652 136.84C192.126 138.012 195.577 138.598 200.004 138.598C204.366 138.598 207.784 138.012 210.258 136.84C212.797 135.668 214.685 134.008 215.922 131.859C217.159 129.646 217.908 127.009 218.168 123.949C218.493 120.889 218.656 117.471 218.656 113.695V2.66016H233.305Z"/>
</mask>
<path d="M44.7266 92.9922L42.8272 92.3659L42.7266 92.671V92.9922H44.7266ZM44.7266 151V153H46.7266V151H44.7266ZM30.0781 151H28.0781V153H30.0781V151ZM30.0781 92.9922H32.0781V92.671L31.9775 92.3659L30.0781 92.9922ZM0.292969 2.66016V0.660156H-2.47241L-1.60644 3.28645L0.292969 2.66016ZM16.2109 2.66016L18.1221 2.07066L17.687 0.660156H16.2109V2.66016ZM37.5977 71.9961L35.6865 72.5856L37.5761 78.7117L39.505 72.5978L37.5977 71.9961ZM59.4727 2.66016V0.660156H58.0065L57.5653 2.05841L59.4727 2.66016ZM74.5117 2.66016L76.4111 3.28645L77.2771 0.660156H74.5117V2.66016ZM42.7266 92.9922V151H46.7266V92.9922H42.7266ZM44.7266 149H30.0781V153H44.7266V149ZM32.0781 151V92.9922H28.0781V151H32.0781ZM31.9775 92.3659L2.19238 2.03386L-1.60644 3.28645L28.1787 93.6185L31.9775 92.3659ZM0.292969 4.66016H16.2109V0.660156H0.292969V4.66016ZM14.2998 3.24965L35.6865 72.5856L39.5088 71.4066L18.1221 2.07066L14.2998 3.24965ZM39.505 72.5978L61.38 3.26191L57.5653 2.05841L35.6903 71.3943L39.505 72.5978ZM59.4727 4.66016H74.5117V0.660156H59.4727V4.66016ZM72.6123 2.03386L42.8272 92.3659L46.626 93.6185L76.4111 3.28645L72.6123 2.03386ZM82.7656 28.6367L84.747 28.9092L84.7474 28.9059L82.7656 28.6367ZM87.3555 14.5742L89.092 15.5665L89.0986 15.5547L87.3555 14.5742ZM97.4141 4.61328L98.4008 6.35297L98.4091 6.34819L97.4141 4.61328ZM136.965 7.44531L135.677 8.97514L135.689 8.98518L135.701 8.99504L136.965 7.44531ZM142.922 14.6719L141.158 15.6152L141.167 15.631L141.175 15.6466L142.922 14.6719ZM146.438 23.7539L144.493 24.2206L144.497 24.239L144.502 24.2572L146.438 23.7539ZM148.098 34.0078L146.103 34.1529L146.103 34.1556L148.098 34.0078ZM147.414 124.926L149.395 125.198L149.396 125.195L147.414 124.926ZM142.824 138.988L144.561 139.981L144.567 139.969L142.824 138.988ZM132.668 148.949L133.655 150.689L133.663 150.684L132.668 148.949ZM102.297 150.902L101.675 152.803L102.297 150.902ZM93.2148 146.117L91.9266 147.647L91.9385 147.657L91.9506 147.667L93.2148 146.117ZM87.1602 138.793L85.3966 139.736L85.405 139.752L85.4138 139.768L87.1602 138.793ZM83.6445 129.711L81.6998 130.178L81.7041 130.196L81.7089 130.214L83.6445 129.711ZM99.4648 23.6562L97.6591 22.7964L97.6546 22.8058L97.6502 22.8153L99.4648 23.6562ZM97.0234 33.1289L99.0116 33.3458L99.0121 33.342L97.0234 33.1289ZM96.9258 120.141L94.9337 120.318L94.934 120.322L96.9258 120.141ZM104.836 136.156L105.935 134.485L104.836 136.156ZM125.051 136.254L123.983 134.563L125.051 136.254ZM130.617 129.906L128.811 129.046L128.807 129.056L128.803 129.065L130.617 129.906ZM133.156 120.434L135.144 120.65L135.145 120.647L133.156 120.434ZM133.254 33.4219L131.262 33.5997L131.262 33.6029L133.254 33.4219ZM83.6914 44.6523C83.6914 39.2711 84.0437 34.0237 84.747 28.9092L80.7843 28.3643C80.0552 33.6664 79.6914 39.0961 79.6914 44.6523H83.6914ZM84.7474 28.9059C85.4334 23.8549 86.8908 19.4185 89.092 15.5665L85.619 13.5819C83.1326 17.933 81.5302 22.8717 80.7838 28.3676L84.7474 28.9059ZM89.0986 15.5547C91.2551 11.7211 94.3391 8.65657 98.4007 6.35295L96.4274 2.87361C91.7651 5.5179 88.1434 9.09403 85.6123 13.5937L89.0986 15.5547ZM98.4091 6.34819C102.429 4.04293 107.937 2.80469 115.09 2.80469V-1.19531C107.529 -1.19531 101.254 0.105511 96.419 2.87837L98.4091 6.34819ZM115.09 2.80469C119.889 2.80469 123.932 3.37405 127.261 4.46329L128.505 0.661705C124.672 -0.5928 120.187 -1.19531 115.09 -1.19531V2.80469ZM127.261 4.46329C130.637 5.56835 133.428 7.08193 135.677 8.97514L138.253 5.91549C135.553 3.64203 132.29 1.9004 128.505 0.661705L127.261 4.46329ZM135.701 8.99504C137.971 10.8471 139.786 13.0502 141.158 15.6152L144.685 13.7286C143.063 10.6946 140.907 8.07999 138.229 5.89558L135.701 8.99504ZM141.175 15.6466C142.645 18.2797 143.752 21.1352 144.493 24.2206L148.382 23.2872C147.56 19.8622 146.324 16.663 144.668 13.6971L141.175 15.6466ZM144.502 24.2572C145.316 27.3874 145.851 30.685 146.103 34.1529L150.092 33.8627C149.824 30.1691 149.252 26.6308 148.373 23.2506L144.502 24.2572ZM146.103 34.1556C146.36 37.6222 146.488 41.0885 146.488 44.5547H150.488C150.488 40.9896 150.356 37.4247 150.092 33.8601L146.103 34.1556ZM146.488 44.5547V108.812H150.488V44.5547H146.488ZM146.488 108.812C146.488 114.194 146.136 119.475 145.432 124.657L149.396 125.195C150.124 119.83 150.488 114.369 150.488 108.812H146.488ZM145.433 124.653C144.747 129.638 143.29 134.081 141.081 138.008L144.567 139.969C147.046 135.562 148.648 130.631 149.395 125.198L145.433 124.653ZM141.088 137.996C138.935 141.764 135.817 144.838 131.673 147.214L133.663 150.684C138.373 147.983 142.026 144.416 144.561 139.981L141.088 137.996ZM131.681 147.21C127.729 149.451 122.251 150.66 115.09 150.66V154.66C122.642 154.66 128.883 153.395 133.655 150.689L131.681 147.21ZM115.09 150.66C110.291 150.66 106.247 150.091 102.919 149.002L101.675 152.803C105.508 154.058 109.993 154.66 115.09 154.66V150.66ZM102.919 149.002C99.5308 147.893 96.7314 146.405 94.4791 144.567L91.9506 147.667C94.6462 149.866 97.9015 151.568 101.675 152.803L102.919 149.002ZM94.5031 144.587C92.2125 142.658 90.3501 140.405 88.9066 137.818L85.4138 139.768C87.0952 142.78 89.2693 145.409 91.9266 147.647L94.5031 144.587ZM88.9237 137.85C87.5052 135.198 86.3891 132.319 85.5802 129.208L81.7089 130.214C82.5927 133.613 83.8204 136.789 85.3966 139.736L88.9237 137.85ZM85.5893 129.244C84.8345 126.099 84.3294 122.821 84.0766 119.407L80.0875 119.702C80.3555 123.32 80.8921 126.812 81.6998 130.178L85.5893 129.244ZM84.0766 119.407C83.8198 115.941 83.6914 112.442 83.6914 108.91H79.6914C79.6914 112.539 79.8234 116.137 80.0875 119.702L84.0766 119.407ZM83.6914 108.91V44.6523H79.6914V108.91H83.6914ZM115.09 12.8672C110.698 12.8672 106.963 13.6872 104.061 15.52L106.197 18.9019C108.243 17.6097 111.149 16.8672 115.09 16.8672V12.8672ZM104.061 15.52C101.256 17.2916 99.1177 19.7334 97.6591 22.7964L101.271 24.5161C102.416 22.1103 104.054 20.2553 106.197 18.9019L104.061 15.52ZM97.6502 22.8153C96.3019 25.7249 95.4432 29.1039 95.0348 32.9158L99.0121 33.342C99.3849 29.8622 100.154 26.9261 101.279 24.4972L97.6502 22.8153ZM95.0352 32.912C94.6357 36.5749 94.4375 40.5218 94.4375 44.75H98.4375C98.4375 40.6449 98.63 36.8444 99.0116 33.3458L95.0352 32.912ZM94.4375 44.75V108.812H98.4375V44.75H94.4375ZM94.4375 108.812C94.4375 112.774 94.6026 116.61 94.9337 120.318L98.9179 119.963C98.598 116.38 98.4375 112.663 98.4375 108.812H94.4375ZM94.934 120.322C95.2758 124.082 96.1021 127.464 97.4473 130.438L101.092 128.789C99.963 126.294 99.2268 123.361 98.9176 119.96L94.934 120.322ZM97.4473 130.438C98.8381 133.512 100.942 135.988 103.737 137.827L105.935 134.485C103.782 133.069 102.175 131.183 101.092 128.789L97.4473 130.438ZM103.737 137.827C106.657 139.749 110.512 140.598 115.09 140.598V136.598C110.944 136.598 107.962 135.819 105.935 134.485L103.737 137.827ZM115.09 140.598C119.482 140.598 123.217 139.778 126.119 137.945L123.983 134.563C121.937 135.855 119.031 136.598 115.09 136.598V140.598ZM126.119 137.945C128.92 136.176 131.034 133.764 132.432 130.747L128.803 129.065C127.727 131.387 126.129 133.207 123.983 134.563L126.119 137.945ZM132.423 130.766C133.838 127.795 134.734 124.413 135.144 120.65L131.168 120.217C130.797 123.615 130.001 126.549 128.811 129.046L132.423 130.766ZM135.145 120.647C135.544 116.921 135.742 112.943 135.742 108.715H131.742C131.742 112.82 131.55 116.654 131.168 120.221L135.145 120.647ZM135.742 108.715V44.6523H131.742V108.715H135.742ZM135.742 44.6523C135.742 40.6908 135.577 36.8866 135.246 33.2408L131.262 33.6029C131.582 37.1186 131.742 40.8014 131.742 44.6523H135.742ZM135.246 33.244C134.905 29.4221 134.08 26.0053 132.732 23.0272L129.088 24.6759C130.215 27.1666 130.952 30.13 131.262 33.5997L135.246 33.244ZM132.732 23.0272C131.342 19.9529 129.238 17.4764 126.443 15.6378L124.245 18.9794C126.398 20.396 128.005 22.2815 129.088 24.6759L132.732 23.0272ZM126.443 15.6378C123.522 13.7163 119.668 12.8672 115.09 12.8672V16.8672C119.235 16.8672 122.217 17.6457 124.245 18.9794L126.443 15.6378ZM233.305 2.66016H235.305V0.660156H233.305V2.66016ZM232.133 129.809L234.105 130.142L234.106 130.137L232.133 129.809ZM227.348 141.918L225.708 140.773L225.703 140.78L227.348 141.918ZM182.719 149.828L181.924 151.664L182.719 149.828ZM172.562 141.918L170.908 143.042L170.92 143.06L170.933 143.077L172.562 141.918ZM167.875 129.809L165.902 130.137L165.903 130.142L167.875 129.809ZM166.703 2.66016V0.660156H164.703V2.66016H166.703ZM181.449 2.66016H183.449V0.660156H181.449V2.66016ZM181.84 123.949L179.847 124.119L179.849 124.14L179.851 124.161L181.84 123.949ZM184.086 131.859L182.318 132.795L182.335 132.827L182.353 132.857L184.086 131.859ZM210.258 136.84L209.42 135.024L209.411 135.028L209.402 135.032L210.258 136.84ZM215.922 131.859L217.655 132.857L217.662 132.846L217.668 132.835L215.922 131.859ZM218.168 123.949L216.179 123.738L216.177 123.759L216.175 123.78L218.168 123.949ZM218.656 2.66016V0.660156H216.656V2.66016H218.656ZM231.305 2.66016V114.379H235.305V2.66016H231.305ZM231.305 114.379C231.305 119.887 230.92 124.918 230.16 129.48L234.106 130.137C234.908 125.324 235.305 120.069 235.305 114.379H231.305ZM230.161 129.475C229.423 133.839 227.929 137.592 225.708 140.773L228.988 143.063C231.584 139.343 233.28 135.023 234.105 130.142L230.161 129.475ZM225.703 140.78C223.603 143.813 220.568 146.23 216.495 147.993L218.084 151.664C222.734 149.651 226.404 146.794 228.992 143.056L225.703 140.78ZM216.495 147.993C212.477 149.731 207.018 150.66 200.004 150.66V154.66C207.313 154.66 213.377 153.701 218.084 151.664L216.495 147.993ZM200.004 150.66C192.99 150.66 187.53 149.731 183.513 147.993L181.924 151.664C186.631 153.701 192.695 154.66 200.004 154.66V150.66ZM183.513 147.993C179.437 146.228 176.36 143.806 174.192 140.758L170.933 143.077C173.582 146.801 177.277 149.652 181.924 151.664L183.513 147.993ZM174.217 140.794C172.054 137.609 170.586 133.85 169.847 129.475L165.903 130.142C166.726 135.012 168.384 139.326 170.908 143.042L174.217 140.794ZM169.848 129.48C169.088 124.918 168.703 119.887 168.703 114.379H164.703C164.703 120.069 165.1 125.324 165.902 130.137L169.848 129.48ZM168.703 114.379V2.66016H164.703V114.379H168.703ZM166.703 4.66016H181.449V0.660156H166.703V4.66016ZM179.449 2.66016V113.695H183.449V2.66016H179.449ZM179.449 113.695C179.449 117.516 179.581 120.991 179.847 124.119L183.833 123.78C183.578 120.787 183.449 117.427 183.449 113.695H179.449ZM179.851 124.161C180.198 127.418 181.003 130.311 182.318 132.795L185.854 130.924C184.825 128.98 184.133 126.6 183.829 123.738L179.851 124.161ZM182.353 132.857C183.814 135.395 185.994 137.32 188.796 138.647L190.509 135.032C188.362 134.016 186.832 132.62 185.819 130.861L182.353 132.857ZM188.796 138.647C191.653 140.001 195.442 140.598 200.004 140.598V136.598C195.711 136.598 192.599 136.023 190.509 135.032L188.796 138.647ZM200.004 140.598C204.505 140.598 208.26 139.999 211.114 138.647L209.402 135.032C207.308 136.024 204.226 136.598 200.004 136.598V140.598ZM211.096 138.656C213.961 137.334 216.186 135.409 217.655 132.857L214.189 130.861C213.184 132.606 211.633 134.002 209.42 135.024L211.096 138.656ZM217.668 132.835C219.069 130.327 219.881 127.403 220.161 124.119L216.175 123.78C215.934 126.615 215.248 128.965 214.176 130.884L217.668 132.835ZM220.157 124.161C220.491 121.017 220.656 117.527 220.656 113.695H216.656C216.656 117.416 216.496 120.762 216.179 123.738L220.157 124.161ZM220.656 113.695V2.66016H216.656V113.695H220.656ZM218.656 4.66016H233.305V0.660156H218.656V4.66016Z" fill="#A7EC51" mask="url(#path-1-outside-1_7_15495)"/>
</svg>
